<?xml version="1.0" standalone="no"?>
<!DOCTYPE svg PUBLIC "-//W3C//DTD SVG 20010904//EN"
 "http://www.w3.org/TR/2001/REC-SVG-20010904/DTD/svg10.dtd">
<svg version="1.0" xmlns="http://www.w3.org/2000/svg"
 width="476.000000pt" height="106.000000pt" viewBox="0 0 476.000000 106.000000"
 preserveAspectRatio="xMidYMid meet">
<g transform="translate(0.000000,106.000000) scale(0.100000,-0.100000)"
fill="#000000" stroke="none">
<path d="M597 1044 c6 -17 3 -17 -32 -4 -20 7 -26 7 -23 -1 2 -7 19 -13 38
-15 19 -2 57 -15 83 -29 27 -14 53 -22 58 -19 10 6 1 26 -9 21 -11 -6 -42 32
-32 38 5 3 11 1 15 -5 4 -6 11 -7 17 -4 6 4 8 2 5 -3 -4 -6 0 -13 8 -17 8 -3
15 -1 15 5 0 6 5 7 10 4 6 -4 7 -11 4 -17 -5 -7 -1 -9 9 -5 10 3 17 2 17 -3 0
-6 6 -9 13 -7 7 1 11 -7 9 -23 -2 -24 -2 -24 12 -5 17 22 17 1 1 -25 -13 -20
-15 -41 -4 -34 13 8 11 -10 -3 -25 -9 -10 -9 -12 -1 -7 6 3 18 -2 25 -12 17
-23 38 -36 38 -23 0 5 -8 17 -17 27 -25 24 -43 63 -33 69 12 7 60 -53 60 -76
0 -11 4 -18 10 -14 5 3 7 12 4 19 -3 8 0 17 6 21 7 4 9 -2 6 -18 -4 -25 20
-87 35 -87 5 0 5 -7 2 -17 -5 -12 -3 -14 8 -8 11 6 12 5 2 -6 -7 -7 -13 -18
-13 -23 0 -6 5 -4 10 4 10 15 6 -69 -6 -139 -8 -46 -45 -121 -57 -114 -6 4 -7
1 -2 -6 4 -7 -2 -22 -16 -37 -15 -16 -25 -20 -30 -13 -5 8 -8 8 -13 0 -4 -6
-1 -11 6 -11 10 -1 9 -4 -2 -13 -8 -7 -22 -21 -30 -32 -8 -11 5 -4 30 16 208
167 185 487 -46 631 -60 38 -154 62 -154 40 0 -5 8 -8 18 -5 12 3 19 -1 19
-11 0 -19 0 -19 -31 -5 -14 7 -23 15 -21 19 3 5 -2 10 -10 13 -9 4 -12 1 -8
-9z m248 -104 c-3 -5 -1 -10 4 -10 6 0 11 -5 11 -11 0 -8 -5 -8 -15 1 -13 11
-12 30 1 30 3 0 2 -4 -1 -10z m43 -42 c10 -12 10 -18 1 -24 -8 -4 -9 -3 -5 4
4 7 2 12 -3 12 -6 0 -11 8 -11 17 0 9 1 14 3 12 1 -2 8 -11 15 -21z m46 -74
c9 -24 2 -26 -12 -4 -7 11 -8 20 -3 20 5 0 12 -7 15 -16z"/>
<path d="M449 1034 c-25 -8 -54 -23 -64 -34 -18 -19 -17 -20 3 -20 12 0 25 -6
29 -14 4 -7 20 -15 36 -18 25 -5 32 1 28 25 0 4 5 7 13 7 8 0 13 -8 11 -17 -1
-10 0 -12 2 -5 7 18 50 9 72 -15 11 -12 24 -23 30 -24 15 -6 17 -41 2 -47 -9
-3 -11 1 -7 16 5 13 1 22 -10 26 -14 5 -15 4 -4 -9 10 -12 9 -15 -6 -15 -11 0
-27 7 -37 14 -16 13 -16 14 -1 20 13 5 14 10 6 18 -13 13 -46 -8 -36 -23 5 -8
-10 -13 -29 -10 -4 1 -17 -3 -27 -9 -23 -13 -28 -45 -5 -36 10 3 17 -3 21 -19
7 -27 24 -34 24 -10 0 8 5 15 11 15 5 0 8 4 4 10 -3 5 -12 7 -19 4 -19 -7 -41
22 -25 32 7 4 15 2 17 -4 5 -15 32 -16 32 -2 0 14 27 12 37 -2 4 -7 15 -13 23
-13 8 0 15 -5 15 -12 0 -20 14 -27 21 -9 3 9 10 14 14 11 15 -9 22 15 9 31 -6
8 -12 24 -13 36 0 12 -7 23 -14 24 -7 1 -8 0 -2 -3 5 -2 10 -9 10 -14 0 -6
-11 -2 -24 8 -19 14 -23 24 -19 43 6 24 5 24 -14 8 -25 -23 -29 -22 -54 3 -16
16 -18 23 -8 35 14 17 9 16 -52 -2z m31 -23 c0 -5 8 -12 18 -14 10 -3 6 -5
-10 -6 -19 -1 -28 4 -28 14 0 8 5 15 10 15 6 0 10 -4 10 -9z m-32 -20 c27 -23
28 -31 3 -31 -17 0 -31 18 -31 41 0 13 4 11 28 -10z"/>
<path d="M515 1020 c3 -5 8 -10 11 -10 2 0 4 5 4 10 0 6 -5 10 -11 10 -5 0 -7
-4 -4 -10z"/>
<path d="M37 950 c25 -62 74 -112 139 -142 33 -14 90 -40 128 -57 123 -56 244
-161 288 -251 45 -92 19 -205 -62 -274 -26 -21 -29 -29 -20 -43 11 -17 11 -17
6 0 -6 21 7 23 23 3 10 -11 6 -17 -18 -29 -24 -12 -31 -12 -35 -1 -3 8 0 11
10 7 10 -4 12 0 8 11 -3 9 -9 16 -13 16 -16 0 -191 -122 -206 -142 -25 -37
-17 -41 22 -10 21 16 52 34 68 39 96 32 264 111 306 144 75 60 92 101 108 266
11 103 30 149 68 164 24 9 25 10 8 23 -17 12 -17 14 10 27 15 8 26 16 25 19
-2 3 3 16 10 30 12 23 12 24 -3 11 -10 -7 -17 -19 -17 -26 0 -24 -46 -44 -84
-38 -45 7 -68 -11 -103 -82 -26 -52 -51 -85 -63 -85 -4 0 -17 26 -29 59 -44
120 -197 245 -376 306 -44 15 -110 43 -147 61 l-66 33 15 -39z m57 -16 c9 -3
16 -10 16 -16 0 -5 -5 -6 -12 -2 -7 4 -8 3 -4 -5 4 -6 11 -9 17 -6 18 12 79
-7 80 -24 0 -11 2 -12 6 -3 3 9 9 10 17 3 7 -6 21 -12 32 -14 10 -1 25 -6 32
-10 6 -5 17 -5 24 -1 7 4 8 3 4 -4 -6 -11 12 -17 37 -13 4 0 7 -6 7 -15 0 -11
5 -14 16 -10 12 5 15 2 10 -9 -3 -9 -2 -13 4 -10 14 9 50 -13 46 -28 -1 -6 -1
-9 1 -4 10 17 24 5 18 -15 -7 -21 -6 -22 7 -5 13 17 15 16 41 -12 31 -35 37
-61 10 -40 -16 13 -17 12 -4 -4 8 -9 16 -15 19 -13 2 3 13 1 23 -5 24 -13 14
-38 -14 -33 -21 4 -21 4 -2 -5 12 -5 25 -5 32 1 14 11 37 -26 29 -48 -3 -8 -1
-14 5 -14 6 0 7 -4 4 -10 -3 -5 -1 -10 5 -10 6 0 9 -4 6 -8 -3 -5 9 -17 26
-27 17 -10 29 -14 27 -9 -3 5 9 23 25 39 16 17 26 24 21 16 -5 -9 -4 -12 3 -7
6 4 9 13 6 20 -6 15 26 78 43 83 6 2 14 -5 18 -17 6 -18 9 -19 23 -8 13 11 14
11 7 -2 -20 -31 -32 -80 -27 -106 3 -15 1 -25 -4 -22 -5 3 -10 -23 -11 -58 -2
-67 -19 -116 -33 -95 -4 7 -7 0 -6 -17 1 -17 5 -27 11 -24 6 3 -1 -8 -15 -25
-25 -30 -109 -90 -122 -86 -3 1 -12 -4 -18 -13 -11 -13 -15 -13 -31 2 -18 16
-17 18 14 48 18 17 39 30 48 30 9 -1 16 5 16 11 0 7 -6 11 -13 8 -10 -4 -11 0
-1 20 6 14 16 23 22 19 5 -3 4 2 -4 11 -8 10 -9 17 -3 17 19 0 -1 138 -22 152
-7 5 -6 8 3 8 8 0 2 9 -13 21 -14 11 -24 24 -21 29 6 9 -16 34 -51 56 -15 10
-21 21 -17 32 3 9 3 14 -2 10 -4 -4 -14 0 -22 10 -8 9 -11 11 -7 3 5 -10 3
-12 -5 -7 -9 6 -9 11 0 23 10 12 10 16 -2 24 -13 8 -6 13 14 10 5 -1 5 4 2 10
-5 7 -14 4 -28 -9 -19 -19 -22 -20 -49 -6 -17 9 -26 20 -22 26 4 6 3 8 -3 5
-10 -6 -105 37 -98 45 2 2 -10 4 -28 4 -21 0 -31 4 -29 13 1 7 -2 10 -8 6 -6
-4 -27 6 -47 21 -20 15 -32 21 -28 13 8 -12 5 -11 -14 1 -12 8 -21 18 -19 21
2 3 -5 13 -15 23 -9 10 -15 21 -12 26 3 5 -1 11 -7 13 -7 3 -10 6 -6 6 3 1 13
-2 22 -5z m371 -234 c3 -5 1 -10 -4 -10 -6 0 -11 5 -11 10 0 6 2 10 4 10 3 0
8 -4 11 -10z m345 -41 c0 -5 -7 -9 -15 -9 -15 0 -20 12 -9 23 8 8 24 -1 24
-14z m-334 -511 c4 -6 3 -8 -3 -5 -6 4 -13 0 -17 -8 -3 -8 -11 -15 -17 -15 -7
0 -5 8 6 20 21 23 22 24 31 8z m-61 -38 c-3 -5 -12 -10 -18 -10 -7 0 -6 4 3
10 19 12 23 12 15 0z"/>
<path d="M135 880 c-4 -6 -11 -7 -17 -4 -7 4 -8 2 -4 -5 6 -8 12 -9 20 -2 7 6
17 7 21 3 5 -4 5 -1 1 6 -9 15 -13 15 -21 2z"/>
<path d="M307 815 c-4 -8 -3 -16 1 -19 4 -3 9 4 9 15 2 23 -3 25 -10 4z"/>
<path d="M709 513 c-13 -16 -12 -17 4 -4 16 13 21 21 13 21 -2 0 -10 -8 -17
-17z"/>
<path d="M628 243 c6 -3 10 -9 6 -14 -8 -14 2 -11 14 4 8 10 6 13 -11 14 -12
0 -16 -1 -9 -4z"/>
<path d="M545 200 c3 -5 8 -10 11 -10 2 0 4 5 4 10 0 6 -5 10 -11 10 -5 0 -7
-4 -4 -10z"/>
<path d="M585 970 c4 -6 11 -8 16 -5 14 9 11 15 -7 15 -8 0 -12 -5 -9 -10z"/>
<path d="M716 946 c3 -9 -3 -20 -15 -28 -13 -8 -21 -22 -20 -38 1 -21 2 -22 6
-5 8 29 25 36 40 17 7 -10 12 -12 13 -5 0 6 -5 15 -10 18 -6 4 -8 15 -5 25 3
10 1 21 -4 25 -7 3 -8 0 -5 -9z"/>
<path d="M627 843 c-12 -11 -8 -34 10 -51 16 -16 16 -16 9 3 -5 11 -8 28 -8
38 1 19 -1 20 -11 10z"/>
<path d="M807 833 c5 -12 3 -14 -8 -8 -11 7 -12 6 -2 -7 7 -8 10 -17 7 -21 -3
-3 3 -3 14 -1 12 4 22 0 25 -10 4 -9 2 -16 -2 -16 -5 0 -11 5 -13 11 -2 7 -9
5 -17 -5 -12 -14 -12 -16 4 -10 15 6 16 4 6 -14 -7 -12 -10 -22 -9 -23 35 -9
55 2 26 14 -8 4 -4 8 10 12 24 8 29 21 10 28 -10 4 -9 8 2 17 13 10 13 11 -2
6 -10 -3 -18 -1 -18 4 0 5 -6 7 -14 4 -11 -4 -13 0 -9 15 3 12 1 21 -6 21 -6
0 -8 -7 -4 -17z"/>
<path d="M29 772 c28 -55 103 -113 226 -174 55 -28 123 -69 152 -92 55 -44
107 -121 118 -174 6 -31 5 -33 -12 -24 -10 5 -25 7 -33 4 -12 -4 -13 -3 -3 10
10 12 10 15 -2 15 -8 0 -12 -4 -9 -9 3 -4 -3 -8 -13 -9 -10 0 0 -7 22 -15 60
-22 69 -14 61 54 -8 66 -42 145 -80 185 -24 26 -46 29 -46 6 0 -6 5 -7 12 -3
7 4 8 3 4 -4 -4 -7 -2 -12 5 -12 7 0 10 -3 6 -6 -8 -9 -67 28 -60 39 3 4 -3 7
-13 5 -12 -2 -19 4 -21 17 -3 19 -3 19 5 1 8 -18 9 -18 15 -2 4 9 11 14 17 11
6 -4 8 -10 5 -15 -8 -13 15 -24 27 -12 14 14 -36 46 -166 106 -145 68 -167 80
-206 112 l-32 28 21 -42z m103 -67 c3 3 11 -1 17 -9 8 -10 9 -16 1 -21 -6 -4
-9 -1 -8 6 2 7 -3 14 -9 15 -7 1 -17 2 -21 3 -5 0 -9 8 -9 17 0 15 1 15 12 0
7 -8 14 -13 17 -11z m71 -41 c-4 -10 0 -12 11 -8 11 4 22 -1 31 -12 10 -14 14
-15 15 -5 0 8 3 12 6 8 3 -3 3 -10 0 -16 -10 -16 -86 19 -86 40 0 12 5 16 14
13 8 -3 12 -12 9 -20z m117 -44 c3 -1 8 -2 11 -2 4 1 4 -9 1 -21 -3 -12 -7
-16 -9 -10 -3 7 -10 11 -16 9 -7 -1 -9 -1 -4 1 12 8 8 20 -8 20 -8 0 -15 -5
-15 -10 0 -6 -3 -8 -6 -4 -17 16 16 28 46 17z m141 -127 c13 -16 12 -17 -3 -4
-17 13 -22 21 -14 21 2 0 10 -8 17 -17z"/>
<path d="M554 798 c-4 -7 -2 -8 4 -4 7 4 12 3 12 -2 0 -5 11 -14 25 -20 15 -7
25 -8 25 -2 0 6 -4 10 -10 10 -5 0 -10 6 -10 13 0 16 -37 20 -46 5z"/>
<path d="M1210 780 c0 -16 7 -20 35 -20 l35 0 0 -170 c0 -163 1 -170 20 -170
19 0 20 7 20 170 l0 170 40 0 c33 0 40 3 40 20 0 19 -7 20 -95 20 -88 0 -95
-1 -95 -20z"/>
<path d="M2133 780 c1 -16 8 -20 42 -20 l40 0 -3 -170 c-3 -166 -2 -170 18
-170 19 0 20 5 20 170 l0 170 35 0 c28 0 35 4 35 20 0 19 -7 20 -94 20 -89 0
-95 -1 -93 -20z"/>
<path d="M3390 610 c0 -183 1 -190 20 -190 19 0 20 7 20 190 0 183 -1 190 -20
190 -19 0 -20 -7 -20 -190z"/>
<path d="M207 745 c-3 -17 1 -29 12 -35 14 -7 16 -4 13 26 -5 40 -18 45 -25 9z"/>
<path d="M540 760 c-9 -6 -10 -10 -3 -10 6 0 15 5 18 10 8 12 4 12 -15 0z"/>
<path d="M3487 648 c20 -62 43 -138 53 -168 27 -90 42 -78 74 57 15 65 31 127
35 137 5 13 17 -24 40 -117 22 -93 37 -137 46 -137 9 0 30 52 60 148 25 81 50
157 55 170 8 18 6 22 -9 22 -14 0 -25 -25 -54 -124 -20 -68 -37 -131 -37 -140
0 -9 -3 -16 -8 -16 -4 0 -22 63 -40 140 -24 98 -38 140 -47 140 -8 0 -18 -12
-21 -27 -4 -16 -17 -70 -30 -121 -13 -51 -24 -101 -24 -112 0 -11 -4 -20 -10
-20 -5 0 -10 8 -10 18 0 9 -18 71 -39 137 -25 81 -43 121 -54 123 -13 3 -9
-17 20 -110z"/>
<path d="M4270 590 c0 -144 2 -170 15 -170 13 0 15 26 15 170 0 144 -2 170
-15 170 -13 0 -15 -26 -15 -170z"/>
<path d="M4570 693 l0 -66 -24 22 c-73 69 -206 5 -206 -99 0 -110 122 -180
199 -114 30 25 31 25 31 5 0 -12 6 -21 15 -21 13 0 15 26 15 170 0 144 -2 170
-15 170 -12 0 -15 -14 -15 -67z m-34 -77 c26 -26 34 -42 34 -71 0 -29 -8 -45
-34 -71 -44 -44 -83 -45 -128 -5 -28 25 -33 36 -33 76 0 40 5 51 33 76 45 40
84 39 128 -5z"/>
<path d="M726 728 c3 -5 10 -6 15 -3 13 9 11 12 -6 12 -8 0 -12 -4 -9 -9z"/>
<path d="M4698 732 l-37 -3 1 -64 1 -63 44 0 c53 0 57 16 6 20 -27 2 -39 8
-41 21 -3 14 4 17 37 17 51 0 54 18 4 22 -49 4 -54 33 -6 34 18 0 33 4 34 8 1
11 -2 11 -43 8z"/>
<path d="M920 706 c0 -16 18 -31 27 -22 3 3 -2 12 -11 21 -14 14 -16 14 -16 1z"/>
<path d="M3079 703 c-13 -16 -12 -17 4 -4 16 13 21 21 13 21 -2 0 -10 -8 -17
-17z"/>
<path d="M1460 688 c-39 -27 -70 -81 -70 -123 0 -16 9 -49 20 -72 46 -101 175
-112 243 -21 51 69 41 146 -25 203 -35 29 -49 35 -88 35 -32 0 -57 -7 -80 -22z
m129 -23 c30 -15 61 -69 61 -105 0 -57 -60 -120 -115 -120 -29 0 -74 30 -90
60 -54 104 45 217 144 165z"/>
<path d="M1730 606 c0 -57 5 -117 11 -135 21 -60 119 -82 175 -39 23 18 27 19
21 5 -5 -12 -1 -17 13 -17 19 0 20 7 20 139 0 130 -1 139 -20 144 -19 5 -20 0
-20 -98 0 -57 -3 -111 -6 -120 -10 -25 -62 -47 -94 -40 -55 12 -65 36 -65 151
0 90 -2 104 -17 108 -16 4 -18 -6 -18 -98z"/>
<path d="M2030 565 c0 -122 2 -145 15 -145 12 0 15 17 15 89 0 104 10 137 45
153 14 6 25 19 25 30 0 23 -11 23 -44 -3 -20 -16 -26 -17 -26 -6 0 8 -7 17
-15 21 -13 5 -15 -15 -15 -139z"/>
<path d="M2415 698 c-11 -6 -25 -19 -32 -27 -10 -14 -11 -13 -6 7 4 17 1 22
-13 22 -18 0 -19 -10 -19 -140 0 -127 2 -140 18 -140 15 0 17 11 17 101 0 111
7 134 45 143 16 4 25 13 25 26 0 23 -7 24 -35 8z"/>
<path d="M2545 691 c-43 -26 -66 -55 -74 -93 -12 -56 3 -107 43 -147 34 -33
41 -36 95 -36 49 0 64 4 85 24 26 24 26 24 26 3 0 -15 6 -22 18 -22 17 0 19
11 18 139 0 126 -2 140 -18 144 -14 4 -18 -1 -18 -19 l0 -23 -36 24 c-44 30
-97 32 -139 6z m115 -27 c35 -21 60 -64 60 -104 0 -59 -56 -120 -110 -120 -90
0 -141 129 -78 198 41 43 83 52 128 26z"/>
<path d="M2782 702 c2 -4 27 -70 57 -145 40 -101 58 -137 71 -137 12 0 32 37
73 140 32 76 57 141 57 144 0 2 -9 2 -19 -1 -18 -5 -34 -39 -100 -213 -9 -24
-9 -24 -17 -5 -4 11 -24 62 -44 114 -27 70 -43 97 -59 103 -13 4 -21 4 -19 0z"/>
<path d="M3130 692 c-21 -11 -43 -35 -57 -61 -65 -126 60 -262 191 -207 28 12
76 62 76 79 0 14 -43 1 -51 -15 -11 -20 -60 -48 -84 -48 -48 0 -115 58 -115
100 0 6 46 10 131 10 l131 0 -7 37 c-19 103 -123 153 -215 105z m114 -22 c23
-8 66 -62 66 -82 0 -5 -49 -8 -110 -8 -60 0 -110 2 -110 5 0 20 35 67 58 79
32 18 61 20 96 6z"/>
<path d="M3925 671 c-51 -22 -89 -94 -79 -149 18 -101 143 -145 215 -76 83 79
39 220 -73 230 -24 2 -52 0 -63 -5z m116 -50 c64 -64 21 -181 -66 -181 -27 0
-44 8 -66 29 -64 64 -21 181 66 181 27 0 44 -8 66 -29z"/>
<path d="M4204 665 c-22 -17 -38 -20 -29 -5 3 6 -2 10 -12 10 -16 0 -18 -11
-18 -125 0 -112 2 -125 18 -125 15 0 17 11 17 94 0 97 11 126 46 126 8 0 14 9
14 20 0 24 -9 25 -36 5z"/>
<path d="M378 663 c-16 -2 -28 -8 -28 -12 0 -12 70 -7 71 4 1 12 -8 13 -43 8z"/>
<path d="M666 652 c-3 -5 1 -9 9 -9 8 0 12 4 9 9 -3 4 -7 8 -9 8 -2 0 -6 -4
-9 -8z"/>
<path d="M425 630 c-3 -5 -1 -10 4 -10 6 0 11 5 11 10 0 6 -2 10 -4 10 -3 0
-8 -4 -11 -10z"/>
<path d="M450 630 c0 -5 5 -10 11 -10 5 0 7 5 4 10 -3 6 -8 10 -11 10 -2 0 -4
-4 -4 -10z"/>
<path d="M420 606 c0 -2 9 -6 20 -9 11 -3 20 -1 20 4 0 5 -9 9 -20 9 -11 0
-20 -2 -20 -4z"/>
<path d="M100 593 c0 -23 78 -87 139 -115 36 -16 81 -41 99 -54 38 -29 76 -98
69 -125 -3 -11 -1 -17 4 -13 15 9 10 62 -8 97 -25 49 -73 88 -175 141 -51 27
-101 55 -110 64 -10 8 -18 11 -18 5z"/>
<path d="M211 590 c0 -8 4 -22 9 -30 12 -18 12 -2 0 25 -6 13 -9 15 -9 5z"/>
<path d="M480 593 c5 -2 10 -11 10 -18 0 -7 -5 -16 -10 -18 -6 -3 -5 -4 2 -3
7 2 13 11 13 21 0 10 -6 19 -13 21 -7 1 -8 0 -2 -3z"/>
<path d="M4667 573 c-12 -12 -7 -50 8 -63 35 -29 93 21 65 55 -13 15 -61 20
-73 8z m61 -32 c-4 -20 -36 -27 -52 -11 -8 8 -6 15 7 25 23 17 49 9 45 -14z"/>
<path d="M868 526 c-20 -14 -25 -32 -7 -20 6 3 15 1 19 -6 10 -16 19 1 11 22
-5 14 -9 14 -23 4z"/>
<path d="M4660 468 c0 -31 21 -51 51 -46 28 4 44 30 34 54 -7 17 -8 17 -14 -6
-8 -30 -56 -37 -56 -8 0 9 -4 20 -8 24 -4 4 -7 -4 -7 -18z"/>
<path d="M419 458 c0 -2 -2 -11 -4 -21 -3 -15 -1 -16 11 -6 7 6 11 15 8 20 -5
9 -13 12 -15 7z"/>
<path d="M310 413 c0 -11 32 -43 43 -43 4 0 7 5 7 12 0 6 -3 8 -6 5 -4 -4 -15
3 -25 15 -11 11 -19 17 -19 11z"/>
<path d="M4720 390 c0 -5 7 -10 15 -10 8 0 15 5 15 10 0 6 -7 10 -15 10 -8 0
-15 -4 -15 -10z"/>
<path d="M568 319 c-20 -11 -24 -29 -6 -29 6 0 8 3 5 7 -4 3 1 12 11 19 20 16
14 18 -10 3z"/>
<path d="M2614 295 c19 -82 39 -136 46 -129 5 5 15 34 23 64 l14 55 18 -62
c10 -35 21 -63 24 -63 4 0 16 32 28 70 13 44 16 69 9 67 -6 -2 -15 -25 -20
-50 -5 -26 -12 -47 -16 -47 -3 0 -12 23 -19 50 -7 28 -18 49 -23 48 -6 -2 -19
-28 -28 -58 l-17 -55 -8 47 c-4 26 -14 55 -22 65 -13 17 -14 17 -9 -2z"/>
<path d="M3508 303 l-37 -4 0 -70 c0 -38 5 -69 10 -69 5 0 9 14 9 30 0 27 3
30 30 30 17 0 30 5 30 10 0 6 -13 10 -30 10 -25 0 -30 4 -30 25 0 21 5 25 30
25 17 0 30 5 30 10 0 6 -1 9 -2 8 -2 -1 -20 -3 -40 -5z"/>
<path d="M1350 230 l0 -70 40 0 c22 0 40 5 40 10 0 6 -13 10 -30 10 -25 0 -30
4 -30 24 0 20 6 25 33 29 l32 4 -32 1 c-28 2 -33 6 -33 26 0 20 6 25 33 29 28
3 26 4 -10 5 l-43 2 0 -70z"/>
<path d="M1450 293 c0 -5 9 -19 19 -33 19 -23 19 -25 2 -50 -29 -41 -33 -50
-22 -50 6 0 18 14 27 32 16 31 17 31 31 12 8 -10 18 -26 23 -34 5 -8 12 -12
16 -8 4 4 -5 23 -19 41 l-25 33 25 32 c13 18 20 32 15 32 -6 0 -19 -12 -29
-26 l-19 -25 -14 25 c-13 24 -30 35 -30 19z"/>
<path d="M1570 231 c0 -41 4 -71 10 -71 6 0 10 13 10 29 0 25 5 30 26 33 63 7
55 71 -10 76 l-36 3 0 -70z m58 50 c21 -13 10 -46 -16 -49 -19 -3 -22 1 -22
27 0 31 13 39 38 22z"/>
<path d="M1690 230 l0 -70 40 0 c22 0 40 5 40 10 0 6 -16 10 -36 10 l-36 0 4
60 c1 33 0 60 -4 60 -5 0 -8 -31 -8 -70z"/>
<path d="M1794 275 c-20 -31 -11 -90 16 -105 68 -36 130 43 84 108 -22 32 -78
30 -100 -3z m84 3 c13 -13 16 -56 6 -82 -7 -19 -55 -21 -72 -4 -7 7 -12 26
-12 43 0 36 15 55 45 55 12 0 26 -5 33 -12z"/>
<path d="M1940 230 c0 -45 4 -70 11 -70 7 0 10 12 7 30 -3 23 -1 30 12 30 8 0
24 -13 33 -30 10 -17 23 -30 28 -30 6 0 1 16 -11 35 -12 19 -17 35 -11 35 16
0 24 40 11 55 -7 8 -28 15 -46 15 l-34 0 0 -70z m68 33 c2 -13 0 -23 -5 -24
-4 0 -16 -2 -25 -4 -14 -2 -18 4 -18 27 0 25 3 29 23 26 14 -2 23 -11 25 -25z"/>
<path d="M2060 230 l0 -70 40 0 c22 0 40 5 40 10 0 6 -13 10 -30 10 -25 0 -30
4 -30 25 0 21 5 25 31 25 16 0 28 4 25 9 -3 4 -17 6 -31 3 -21 -4 -25 -1 -25
21 0 22 5 26 33 30 28 3 26 4 -10 5 l-43 2 0 -70z"/>
<path d="M2224 293 c28 -5 28 -5 24 -69 -2 -35 0 -64 4 -64 4 0 8 29 8 64 0
63 1 65 28 69 15 2 0 4 -33 4 -33 0 -47 -2 -31 -4z"/>
<path d="M2330 237 c-3 -38 -2 -71 3 -74 4 -2 7 12 7 32 0 36 1 36 38 33 35
-3 37 -5 34 -35 -1 -18 2 -33 8 -33 6 0 10 30 10 70 0 42 -4 70 -10 70 -6 0
-9 -12 -8 -27 3 -26 0 -28 -34 -31 -35 -3 -37 -2 -40 30 -2 20 -6 6 -8 -35z"/>
<path d="M2470 230 l0 -70 40 0 c22 0 40 5 40 10 0 6 -15 10 -33 10 -29 0 -33
3 -32 23 1 16 10 24 31 28 29 7 26 10 -11 13 -13 0 -20 8 -20 21 0 15 9 22 35
26 l35 6 -42 2 -43 1 0 -70z"/>
<path d="M2817 282 c-23 -25 -22 -77 3 -102 55 -55 133 14 98 87 -17 36 -74
45 -101 15z m81 -4 c16 -16 15 -73 0 -85 -42 -33 -78 -14 -78 41 0 37 15 56
45 56 12 0 26 -5 33 -12z"/>
<path d="M2962 228 l2 -73 3 65 4 64 39 -62 c22 -34 44 -62 50 -62 6 0 10 29
10 70 0 40 -4 70 -10 70 -6 0 -10 -26 -10 -57 l0 -57 -36 57 c-19 31 -40 57
-45 57 -5 0 -8 -33 -7 -72z"/>
<path d="M3100 229 l0 -72 41 6 c23 3 48 11 55 19 27 27 22 89 -10 110 -6 4
-28 8 -48 8 l-38 0 0 -71z m78 45 c41 -28 22 -94 -28 -94 -30 0 -30 1 -30 55
0 61 14 70 58 39z"/>
<path d="M3248 230 l4 -70 34 0 c19 0 34 5 34 10 0 6 -13 10 -30 10 -25 0 -30
4 -30 24 0 20 6 25 33 29 l32 4 -32 1 c-28 2 -33 6 -33 26 0 20 6 25 33 29 30
3 29 4 -8 5 l-40 2 3 -70z"/>
<path d="M3350 231 c0 -41 4 -71 10 -71 6 0 10 14 10 30 0 19 5 30 14 30 8 0
23 -13 33 -30 9 -16 21 -30 25 -30 12 0 10 8 -8 35 -13 20 -14 28 -4 39 6 8
10 25 8 38 -2 19 -10 23 -45 26 l-43 3 0 -70z m70 44 c15 -18 7 -29 -27 -40
-20 -6 -23 -3 -23 24 0 24 4 31 19 31 10 0 24 -7 31 -15z"/>
<path d="M3570 252 c0 -56 21 -92 54 -92 37 0 56 30 56 88 0 71 -18 66 -22 -5
-3 -57 -3 -58 -33 -58 -30 0 -30 1 -33 58 -4 69 -22 77 -22 9z"/>
<path d="M3716 233 l2 -68 36 -3 c21 -2 36 1 36 7 0 6 -13 11 -30 11 l-30 0 0
60 c0 33 -3 60 -7 60 -5 0 -7 -30 -7 -67z"/>
<path d="M3853 288 c2 -7 12 -39 21 -72 10 -33 21 -55 26 -50 5 5 15 33 22 63
l14 54 18 -61 c11 -34 22 -62 26 -62 9 0 43 131 36 138 -6 6 -10 -5 -27 -68
l-11 -45 -14 50 c-7 28 -13 54 -14 58 0 5 -6 7 -12 5 -7 -3 -20 -29 -28 -59
l-16 -54 -13 58 c-7 31 -17 57 -23 57 -5 0 -8 -6 -5 -12z"/>
<path d="M4057 282 c-38 -42 -7 -122 47 -122 35 0 69 46 62 84 -3 16 -11 35
-17 43 -17 19 -73 16 -92 -5z m77 -8 c20 -19 21 -68 2 -83 -8 -7 -27 -11 -43
-9 -25 3 -28 8 -31 41 -5 60 35 89 72 51z"/>
<path d="M4202 228 c0 -40 3 -58 5 -40 6 42 36 44 53 2 7 -16 16 -30 21 -30
13 0 11 13 -7 38 -15 21 -15 25 1 42 26 28 4 60 -40 60 l-35 0 2 -72z m65 46
c7 -18 -4 -31 -32 -36 -15 -2 -21 3 -23 25 -3 23 0 27 23 27 14 0 28 -7 32
-16z"/>
<path d="M4320 230 l0 -70 40 0 c22 0 40 5 40 10 0 6 -16 10 -36 10 l-36 0 4
60 c1 33 0 60 -4 60 -5 0 -8 -31 -8 -70z"/>
<path d="M4420 230 l0 -70 30 0 c38 0 80 39 80 75 0 36 -33 65 -75 65 l-35 0
0 -70z m74 44 c19 -18 21 -65 4 -82 -7 -7 -25 -12 -40 -12 -27 0 -28 1 -28 55
0 52 2 55 24 55 14 0 32 -7 40 -16z"/>
</g>
</svg>
